<?xml version="1.0" encoding="utf-8"?>
<!-- Generator: Adobe Illustrator 21.0.0, SVG Export Plug-In . SVG Version: 6.00 Build 0)  -->
<svg version="1.1" id="Layer_1" xmlns="http://www.w3.org/2000/svg" xmlns:xlink="http://www.w3.org/1999/xlink" x="0px" y="0px"
	 viewBox="0 0 156.8 82.6" style="enable-background:new 0 0 156.8 82.6;" xml:space="preserve">
<style type="text/css">
	.st0{opacity:0;fill:#080808;}
	.st1{fill:#9D9D9D;}
	.st2{fill:#080808;}
</style>
<rect class="st0" width="156.8" height="82.7"/>
<g>
	<g>
		<path class="st1" d="M0,1h15.3c3.1,0,8.8,0.2,8.8,9.6v49.8c0,9.3-6.1,9.8-8.9,9.8H0V1z M11.2,63.6c1.5,0,3.2-0.8,3.2-3.7V11
			c0-2.8-1.7-3.5-3.3-3.5H9.8v56L11.2,63.6L11.2,63.6z"/>
		<path class="st1" d="M101.3,1h15.4c8.9,0,8.7,5.8,8.7,9.9v22.9c0,3.3,0.1,7.4-4.5,9.4l6.5,27h-10.5l-5.1-25.5h-0.7v25.5h-9.8V1
			L101.3,1z M112.5,38.3c1.6,0,3.2-1.2,3.2-4.4V11.1c0-2.9-1.6-3.6-3-3.6h-1.6v30.8H112.5z"/>
		<path class="st1" d="M142.5,46v16c0,1.4,1.5,1.9,2.3,1.9c0.3,0,2.3,0,2.3-1.9V48.9c0-2.1-1.2-4.5-2.7-6.1l-7.9-8.9
			c-2.1-2.3-3.8-4.2-3.8-8.4V11.7c0-4-0.8-10.8,8.7-10.8h5.9c10.2,0,9.5,6.8,9.5,10.8v11.4H147V9.9c0-1.3-1.1-2.6-2.2-2.6
			c-1,0-2.4,1-2.4,2.6v12.4c0,2.8,0.2,3.9,2.1,5.9l8.6,9.3c2.1,2.3,3.7,3.9,3.7,7.7v14.3c0,2.5,0.5,10.7-9.6,10.7h-5.8
			c-8.9,0-8.7-6.6-8.7-10.7V46H142.5z"/>
	</g>
	<g>
		<path class="st1" d="M0.8,77.7c0.5-0.5,1-0.8,1.7-0.8s1.3,0.3,1.6,0.9l0,0c0-0.1,0-0.2,0-0.4v-2.5h1v7.4h-1v-0.5v-0.4l0,0
			c-0.3,0.6-1,1-1.8,1c-0.7,0-1.3-0.3-1.7-0.8S0,80.4,0,79.6C0.1,78.9,0.4,78.2,0.8,77.7z M2.7,81.6c0.9,0,1.5-0.6,1.5-1.9
			c0-0.5-0.1-1-0.4-1.3c-0.3-0.4-0.6-0.6-1.1-0.6c-0.9,0-1.5,0.7-1.5,1.9C1.2,80.9,1.8,81.6,2.7,81.6z"/>
		<path class="st1" d="M14.1,77.8c0.6-0.5,1.2-0.8,2-0.8c0.8,0,1.5,0.3,2,0.8c0.6,0.5,0.8,1.2,0.8,2s-0.3,1.5-0.8,2
			c-0.6,0.5-1.2,0.8-2,0.8s-1.5-0.3-2-0.8c-0.6-0.5-0.8-1.2-0.8-2C13.3,78.9,13.6,78.3,14.1,77.8z M14.9,81.1
			c0.4,0.4,0.8,0.5,1.3,0.5c0.5,0,0.9-0.2,1.3-0.5c0.4-0.4,0.5-0.8,0.5-1.4s-0.2-1-0.5-1.4c-0.4-0.4-0.8-0.5-1.3-0.5
			s-0.9,0.2-1.3,0.5c-0.3,0.4-0.5,0.8-0.5,1.4C14.3,80.3,14.5,80.7,14.9,81.1z"/>
		<path class="st1" d="M27.6,77.8c0.6-0.5,1.2-0.8,2-0.8s1.5,0.3,2,0.8c0.6,0.5,0.8,1.2,0.8,2s-0.3,1.5-0.8,2
			c-0.6,0.5-1.2,0.8-2,0.8s-1.5-0.3-2-0.8c-0.6-0.5-0.8-1.2-0.8-2C26.8,78.9,27.1,78.3,27.6,77.8z M28.4,81.1
			c0.4,0.4,0.8,0.5,1.3,0.5s0.9-0.2,1.3-0.5c0.4-0.4,0.5-0.8,0.5-1.4s-0.2-1-0.5-1.4c-0.4-0.4-0.8-0.5-1.3-0.5s-0.9,0.2-1.3,0.5
			c-0.3,0.4-0.5,0.8-0.5,1.4C27.8,80.3,28,80.7,28.4,81.1z"/>
		<path class="st1" d="M40.6,82.4v-5.3h1v1v0.4l0,0c0.3-0.8,0.9-1.4,1.7-1.4c0.1,0,0.2,0,0.3,0v1c-0.1,0-0.2,0-0.3,0
			c-0.5,0-0.9,0.2-1.2,0.6s-0.4,0.9-0.4,1.5v2.2C41.7,82.4,40.6,82.4,40.6,82.4z"/>
		<path class="st1" d="M51.5,81c0.4,0.4,0.9,0.6,1.6,0.6c0.5,0,0.9-0.3,0.9-0.7s-0.4-0.6-1-0.8c-0.8-0.3-1.8-0.6-1.8-1.7
			c0-1,0.8-1.5,1.9-1.5c0.7,0,1.3,0.2,1.7,0.6l-0.4,0.7c-0.3-0.3-0.8-0.5-1.3-0.5s-0.9,0.2-0.9,0.7c0,0.4,0.4,0.6,1,0.8
			c0.8,0.2,1.8,0.6,1.8,1.7c0,0.5-0.2,0.8-0.5,1.1c-0.4,0.3-0.8,0.4-1.4,0.4c-0.8,0-1.5-0.3-2-0.8L51.5,81z"/>
		<path class="st1" d="M63.1,82.4v-5.3h1v0.7v0.4l0,0c0.1-0.3,0.4-0.6,0.7-0.9c0.3-0.3,0.7-0.4,1.1-0.4c0.9,0,1.4,0.4,1.6,1.2l0,0
			c0.2-0.3,0.4-0.6,0.7-0.8s0.7-0.4,1.1-0.4c1.2,0,1.7,0.7,1.7,2v3.4h-1v-3.2c0-0.8-0.2-1.3-0.9-1.3c-0.5,0-0.8,0.2-1.1,0.6
			c-0.3,0.4-0.4,0.9-0.4,1.4v2.5h-1v-3.2c0-0.8-0.2-1.3-0.9-1.3c-0.5,0-0.9,0.2-1.2,0.6c-0.3,0.4-0.4,0.9-0.4,1.4v2.5h-1L63.1,82.4
			L63.1,82.4z"/>
		<path class="st1" d="M80,77.8c0.6-0.5,1.2-0.8,2-0.8s1.5,0.3,2,0.8c0.6,0.5,0.8,1.2,0.8,2s-0.3,1.5-0.8,2c-0.6,0.5-1.2,0.8-2,0.8
			s-1.5-0.3-2-0.8c-0.6-0.5-0.8-1.2-0.8-2C79.2,78.9,79.5,78.3,80,77.8z M80.7,81.1c0.4,0.4,0.8,0.5,1.3,0.5s0.9-0.2,1.3-0.5
			c0.4-0.4,0.5-0.8,0.5-1.4s-0.2-1-0.5-1.4c-0.4-0.4-0.8-0.5-1.3-0.5s-0.9,0.2-1.3,0.5c-0.3,0.4-0.5,0.8-0.5,1.4
			S80.4,80.7,80.7,81.1z"/>
		<path class="st1" d="M93,77.1h1v3.2c0,0.8,0.2,1.3,1,1.3c0.5,0,0.9-0.2,1.3-0.6c0.3-0.4,0.5-0.9,0.5-1.4v-2.5h1v5.3h-1v-0.7v-0.4
			l0,0c-0.1,0.3-0.4,0.6-0.7,0.9c-0.3,0.3-0.8,0.4-1.2,0.4c-1.2,0-1.8-0.7-1.8-2v-3.5C93.1,77.1,93,77.1,93,77.1z"/>
		<path class="st1" d="M106.2,82.4v-5.3h1v0.7v0.4l0,0c0.1-0.3,0.4-0.6,0.7-0.8c0.3-0.3,0.8-0.4,1.3-0.4c1.2,0,1.8,0.7,1.8,2v3.4h-1
			v-3.2c0-0.8-0.2-1.3-1-1.3c-0.5,0-0.9,0.2-1.3,0.6c-0.3,0.4-0.5,0.8-0.5,1.4v2.5L106.2,82.4L106.2,82.4z"/>
		<path class="st1" d="M119.6,78h-0.7v-0.8h0.7v-1.5h1v1.5h1.3V78h-1.3v2.4c0,0.6,0.3,0.9,0.6,1.1c0.3,0.1,0.6,0.1,0.8,0.1v0.9
			c-0.2,0-0.3,0-0.4,0c-0.3,0-0.6,0-1-0.2c-0.5-0.2-1-0.7-1-1.8V78L119.6,78z"/>
		<path class="st1" d="M129.9,82.4v-1.1h1.1v1.1H129.9z"/>
		<path class="st1" d="M139.4,82.4v-5.3h1v1v0.4l0,0c0.3-0.8,0.9-1.4,1.7-1.4c0.1,0,0.2,0,0.3,0v1c-0.1,0-0.2,0-0.3,0
			c-0.5,0-0.9,0.2-1.2,0.6s-0.4,0.9-0.4,1.5v2.2C140.5,82.4,139.4,82.4,139.4,82.4z"/>
		<path class="st1" d="M150.2,77.1h1v3.2c0,0.8,0.2,1.3,1,1.3c0.5,0,0.9-0.2,1.3-0.6c0.3-0.4,0.5-0.9,0.5-1.4v-2.5h1v5.3h-1v-0.7
			v-0.4l0,0c-0.1,0.3-0.4,0.6-0.7,0.9s-0.8,0.4-1.2,0.4c-1.2,0-1.8-0.7-1.8-2v-3.5C150.3,77.1,150.2,77.1,150.2,77.1z"/>
	</g>
	<g>
		<path class="st1" d="M58.4,66.6c0,2-1.6,3.6-3.6,3.6H38c-2,0-3.6-1.6-3.6-3.6v-63C34.4,1.6,36,0,38,0h16.8c2,0,3.6,1.6,3.6,3.6
			C58.4,3.6,58.4,66.6,58.4,66.6z"/>
	</g>
	<g>
		<path class="st1" d="M89.7,66.6c0,2-1.6,3.6-3.6,3.6H69.3c-2,0-3.6-1.6-3.6-3.6v-63c0-2,1.6-3.6,3.6-3.6h16.9c2,0,3.6,1.6,3.6,3.6
			v63H89.7z"/>
	</g>
</g>
<g>
	<path class="st2" d="M54.2,36.6c0,0.4,0,1-0.8,1h-0.6c-0.8,0-0.8-0.7-0.8-1v-4.3c0-0.4,0-1,0.8-1h0.6c0.8,0,0.8,0.7,0.8,1V36.6z
		 M52.9,36.8c0,0.2,0.2,0.2,0.2,0.2c0.1,0,0.2-0.1,0.2-0.2v-4.7c0-0.1-0.1-0.2-0.2-0.2c0,0-0.2,0-0.2,0.2V36.8z"/>
</g>
<g>
	<path class="st2" d="M71.4,36.6c0,0.4,0,1-0.8,1H70c-0.8,0-0.8-0.7-0.8-1v-4.3c0-0.4,0-1,0.8-1h0.6c0.8,0,0.8,0.7,0.8,1V36.6z
		 M70.1,36.8c0,0.2,0.2,0.2,0.2,0.2c0.1,0,0.2-0.1,0.2-0.2v-4.7c0-0.1-0.1-0.2-0.2-0.2c0,0-0.2,0-0.2,0.2V36.8z"/>
</g>
</svg>
